<svg width="156" height="31" viewBox="0 0 156 31" fill="none" xmlns="http://www.w3.org/2000/svg">
<path d="M47.4273 19.6371C47.5732 21.0964 48.157 22.4098 49.3244 23.2854C50.4919 24.161 51.9512 24.5988 53.7023 24.5988C55.3076 24.5988 56.475 24.3069 57.4965 23.5772C58.518 22.8476 58.9558 21.972 58.9558 20.8046C58.9558 19.929 58.664 19.1993 58.2262 18.7615C57.6425 18.3237 57.0587 17.8859 56.0372 17.5941C55.1616 17.3022 53.8483 17.0104 52.243 16.7185C50.6378 16.4266 49.1785 15.9888 48.011 15.551C46.8436 15.1133 45.8221 14.3836 45.0924 13.3621C44.3628 12.3406 43.925 11.1731 43.925 9.56789C43.925 8.10858 44.3628 6.79521 45.0924 5.62776C45.8221 4.46031 46.9895 3.58473 48.3029 3.00101C49.6163 2.41729 51.2215 1.97949 53.1186 1.97949C55.0157 1.97949 56.6209 2.27135 58.0802 3.00101C59.5396 3.73066 60.707 4.60625 61.4367 5.77369C62.3122 6.94114 62.75 8.25452 62.75 9.85975H58.664C58.518 8.54638 57.9343 7.52486 56.9128 6.64928C55.8913 5.91962 54.5779 5.48183 53.1186 5.48183C51.6593 5.48183 50.4918 5.77369 49.4703 6.50335C48.5947 7.08707 48.157 8.10858 48.157 9.27603C48.157 10.1516 48.4488 10.7353 48.8866 11.1731C49.4703 11.6109 50.0541 12.0487 50.9296 12.3406C51.8052 12.6324 53.1186 12.7784 54.7238 13.0702C56.3291 13.3621 57.7884 13.7999 58.9558 14.2377C60.1233 14.6755 61.1448 15.4051 61.8744 16.4266C62.6041 17.4482 63.0419 18.6156 63.0419 20.2208C63.0419 21.6801 62.6041 23.1394 61.8744 24.3069C61.1448 25.4743 59.9773 26.3499 58.518 27.0796C57.0587 27.8092 55.4535 28.1011 53.5564 28.1011C51.5134 28.1011 49.7622 27.8092 48.157 26.9336C46.5517 26.204 45.3843 25.1825 44.5087 23.8691C43.6331 22.5557 43.1953 21.0964 43.1953 19.3453L47.4273 19.6371ZM67.5657 12.7784H64.3553V9.27603H67.5657V4.02252H71.6518V9.27603H76.1757V12.7784H71.6518V22.5557C71.6518 23.2854 71.7977 23.8691 72.0896 24.161C72.3815 24.4528 72.8192 24.5988 73.5489 24.5988H76.6135V28.1011H72.8192C71.0681 28.1011 69.7547 27.6633 68.8791 26.7877C68.0035 25.9121 67.7117 24.7447 67.7117 22.9935V12.7784H67.5657ZM96.606 9.27603V27.9552H93.1036L92.6658 25.0365C92.0821 25.9121 91.2065 26.6418 90.185 27.2255C89.1635 27.8092 87.996 28.1011 86.5367 28.1011C84.7856 28.1011 83.3263 27.6633 82.0129 26.9336C80.6995 26.204 79.678 25.0365 78.8024 23.5772C78.0728 22.1179 77.635 20.3668 77.635 18.4697C77.635 16.5726 78.0728 14.9673 78.8024 13.508C79.5321 12.0487 80.6995 10.8813 82.0129 10.1516C83.3263 9.42196 84.9315 8.98417 86.5367 8.98417C87.996 8.98417 89.1635 9.27603 90.185 9.71382C91.2065 10.2975 92.0821 11.0272 92.6658 11.9028L93.1036 9.1301H96.606V9.27603ZM91.2065 23.1394C92.228 21.972 92.6658 20.5127 92.6658 18.7615C92.6658 16.8644 92.228 15.4051 91.2065 14.2377C90.185 13.0702 88.8716 12.4865 87.2664 12.4865C85.6612 12.4865 84.3478 13.0702 83.3263 14.2377C82.3047 15.4051 81.867 16.8644 81.867 18.7615C81.867 20.6586 82.3047 22.1179 83.3263 23.2854C84.3478 24.4528 85.6612 25.0365 87.2664 25.0365C88.8716 24.8906 90.185 24.3069 91.2065 23.1394ZM114.993 26.3499C113.534 27.5174 111.491 28.247 109.156 28.247C107.259 28.247 105.654 27.8092 104.194 27.0796C102.735 26.3499 101.714 25.1825 100.838 23.7232C100.108 22.2639 99.6705 20.6586 99.6705 18.7615C99.6705 16.8644 100.108 15.2592 100.838 13.7999C101.568 12.3406 102.735 11.3191 104.194 10.4435C105.654 9.71382 107.259 9.27603 109.156 9.27603C111.491 9.27603 113.388 9.85975 114.993 11.1731C116.453 12.3406 117.474 14.0917 117.766 16.1348H113.68C113.388 15.1133 112.95 14.2377 112.075 13.6539C111.345 13.0702 110.323 12.6324 109.156 12.6324C107.551 12.6324 106.237 13.2162 105.362 14.3836C104.34 15.551 103.902 17.0104 103.902 18.7615C103.902 20.6586 104.34 22.1179 105.362 23.2854C106.383 24.4528 107.551 25.0365 109.156 25.0365C110.323 25.0365 111.345 24.7447 112.221 24.015C112.95 23.4313 113.534 22.5557 113.826 21.3883H117.912C117.474 23.4313 116.453 25.0365 114.993 26.3499ZM120.976 2.41728H124.917V18.3237L133.526 9.27603H138.05L131.046 16.7185L138.488 27.8092H133.818L128.273 19.4912L124.917 22.9935V27.8092H120.976V2.41728ZM143.158 21.8261C143.158 22.8476 143.742 23.5772 144.471 24.161C145.347 24.7447 146.368 25.0365 147.828 25.0365C148.995 25.0365 150.017 24.8906 150.746 24.3069C151.476 23.8691 151.914 23.2854 151.914 22.5557C151.914 21.972 151.768 21.3883 151.476 21.0964C151.184 20.8046 150.746 20.5127 150.163 20.3668C149.579 20.2208 148.703 20.0749 147.536 19.929C145.931 19.783 144.471 19.4912 143.45 19.1993C142.428 18.9075 141.553 18.3237 140.823 17.5941C140.239 16.8644 139.801 15.9888 139.801 14.6755C139.801 13.508 140.093 12.4865 140.823 11.6109C141.407 10.7353 142.428 10.0057 143.45 9.56789C144.617 9.1301 145.931 8.83824 147.39 8.83824C149.725 8.83824 151.622 9.42196 153.227 10.4435C154.686 11.465 155.562 12.9243 155.708 14.8214H151.768C151.622 13.9458 151.184 13.2162 150.454 12.7784C149.725 12.1946 148.703 11.9028 147.536 11.9028C146.368 11.9028 145.493 12.0487 144.763 12.4865C144.033 12.9243 143.742 13.508 143.742 14.2377C143.742 14.8214 143.888 15.2592 144.325 15.551C144.617 15.8429 145.055 15.9888 145.639 16.1348C146.222 16.2807 147.098 16.4266 148.265 16.5726C149.871 16.7185 151.184 17.0104 152.352 17.3022C153.519 17.5941 154.395 18.1778 154.978 18.9075C155.562 19.6371 156 20.6586 156 21.972C156 23.1394 155.708 24.161 154.978 25.0365C154.249 25.9121 153.373 26.6418 152.206 27.0796C151.038 27.5174 149.725 27.8092 148.12 27.8092C145.639 27.8092 143.596 27.2255 141.99 26.0581C140.385 24.8906 139.656 23.4313 139.51 21.3883L143.158 21.8261Z" fill="white"/>
<path d="M20.5762 20.8041L26.7053 30.1437H22.0355L14.739 19.0529L7.44247 30.1437H2.77268L8.90177 20.8041H0V17.3018H29.1861V20.8041H20.5762Z" fill="white"/>
<path d="M29.4752 10.2966V13.7989H0.289062V10.1507H9.04491L2.91581 0.957031H7.5856L14.8821 12.1937L22.3246 0.957031H26.9944L20.8653 10.1507H29.4752V10.2966Z" fill="white"/>
</svg>
