<svg width="156" height="41" viewBox="0 0 156 41" fill="none" xmlns="http://www.w3.org/2000/svg">
<path d="M20.5503 23.4684L18.6247 28.7415C18.5678 28.8878 18.5678 29.0503 18.6247 29.1965L21.9316 38.2721L25.7584 36.0621L21.1678 23.4684C21.0622 23.1759 20.6559 23.1759 20.5503 23.4684Z" fill="white"/>
<path d="M24.4022 14.5963C24.2966 14.3038 23.8903 14.3038 23.7847 14.5963L21.8591 19.8694C21.8022 20.0157 21.8022 20.1782 21.8591 20.3244L27.2784 35.1851L31.1053 32.9751L24.4022 14.5963Z" fill="white"/>
<path d="M17.5987 3.05074C17.6962 3.05074 17.7856 3.07512 17.875 3.12387L32.4675 11.5495C32.6381 11.647 32.7437 11.8257 32.7437 12.0207V28.872C32.7437 29.067 32.6381 29.2457 32.4675 29.3432L17.875 37.7769C17.7937 37.8257 17.6962 37.8501 17.5987 37.8501C17.5012 37.8501 17.4119 37.8257 17.3225 37.7769L2.73812 29.3513C2.5675 29.2538 2.46187 29.0751 2.46187 28.8801V12.0207C2.46187 11.8257 2.5675 11.647 2.73812 11.5495L17.3306 3.12387C17.4119 3.07512 17.5094 3.05074 17.5987 3.05074ZM17.5987 0.588867C17.0787 0.588867 16.5587 0.726992 16.0956 0.995117L1.50312 9.42073C0.576874 9.95698 0 10.9482 0 12.0207V28.872C0 29.9445 0.576874 30.9438 1.50312 31.4801L16.0956 39.9057C16.5587 40.1738 17.0787 40.3119 17.5987 40.3119C18.1187 40.3119 18.6387 40.1738 19.1019 39.9057L33.6943 31.4801C34.6287 30.9438 35.1975 29.9526 35.1975 28.872V12.0207C35.1975 10.9482 34.6206 9.94885 33.6943 9.4126L19.11 0.995117C18.6387 0.726992 18.1187 0.588867 17.5987 0.588867Z" fill="white"/>
<path d="M7.95508 35.2008L9.2957 31.5283L11.9932 33.7708L9.47445 36.0783L7.95508 35.2008Z" fill="black"/>
<path d="M16.3713 10.8184H12.6744C12.3982 10.8184 12.1463 10.989 12.0569 11.249L4.12695 32.9915L7.95382 35.2015L16.6882 11.2571C16.7613 11.0459 16.6069 10.8184 16.3713 10.8184Z" fill="white"/>
<path d="M22.8483 10.8184H19.1515C18.8752 10.8184 18.6233 10.989 18.534 11.249L9.47461 36.079L13.3015 38.289L23.1571 11.2652C23.2383 11.0459 23.0758 10.8184 22.8483 10.8184Z" fill="white"/>
<path d="M50.9503 15.3428C51.316 15.3428 51.6328 15.4159 51.8847 15.5703C52.1366 15.7247 52.3885 16.0171 52.6322 16.4559L57.4584 25.2146C57.5072 25.3121 57.5153 25.3934 57.4909 25.4584C57.4666 25.5234 57.3934 25.5559 57.2797 25.5559H55.4272C55.2647 25.5559 55.1509 25.4909 55.0941 25.369L54.0622 23.4921H47.2128L46.2053 25.369C46.1403 25.499 46.0266 25.5559 45.8722 25.5559H43.9791C43.8491 25.5559 43.776 25.5234 43.7516 25.4584C43.7272 25.3934 43.7353 25.3121 43.7841 25.2146L48.5697 16.4559C48.8135 16.0171 49.0491 15.7247 49.2847 15.5703C49.5203 15.4159 49.7885 15.3428 50.0972 15.3428H50.9503ZM48.1147 21.7859H53.136L50.8203 17.5121C50.7797 17.4471 50.731 17.4065 50.6578 17.4065H50.5685C50.5035 17.4065 50.4466 17.439 50.406 17.5121L48.1147 21.7859Z" fill="white"/>
<path d="M68.0623 15.3428C69.1835 15.3428 69.9798 15.5947 70.4673 16.0984C70.9547 16.6022 71.1985 17.3496 71.1985 18.3409V19.1696C71.1985 20.0065 71.0279 20.6646 70.6866 21.1521C70.3454 21.6396 69.7929 21.9484 69.021 22.0865L71.5154 25.174C71.5641 25.2228 71.5804 25.2959 71.556 25.3934C71.5398 25.4909 71.4585 25.5396 71.3204 25.5396H69.4435C69.3135 25.5396 69.2323 25.5234 69.1835 25.499C69.1348 25.4665 69.086 25.4178 69.0373 25.3528L66.7298 22.3221H62.0173V25.2228C62.0173 25.434 61.9116 25.5396 61.7004 25.5396H60.1241C59.8966 25.5396 59.791 25.434 59.791 25.2228V15.7815C59.791 15.489 59.9373 15.3428 60.2298 15.3428H68.0623ZM62.0254 20.5509H67.6073C68.1029 20.5509 68.4523 20.4453 68.6554 20.234C68.8585 20.0228 68.9641 19.6978 68.9641 19.259V18.6496C68.9641 18.2109 68.8585 17.8859 68.6554 17.6746C68.4523 17.4634 68.1029 17.3578 67.6073 17.3578H62.2123C62.0823 17.3578 62.0254 17.4146 62.0254 17.5365V20.5509Z" fill="white"/>
<path d="M83.3947 15.3428C84.3941 15.3428 85.109 15.5459 85.5315 15.944C85.954 16.3421 86.1653 16.9434 86.1653 17.7478V18.4465C86.1653 19.259 85.8566 19.8765 85.2309 20.299C85.8972 20.689 86.2384 21.3146 86.2384 22.1759V23.0209C86.2384 23.4109 86.1978 23.7603 86.1084 24.069C86.0191 24.3778 85.8809 24.6459 85.6778 24.8653C85.4747 25.0846 85.2147 25.2553 84.8815 25.369C84.5484 25.4828 84.1422 25.5478 83.6547 25.5478H74.9934C74.7009 25.5478 74.5547 25.4015 74.5547 25.109V15.7815C74.5547 15.489 74.7009 15.3428 74.9934 15.3428H83.3947ZM76.7891 19.584H82.7691C83.2566 19.584 83.5816 19.5109 83.7603 19.3646C83.9391 19.2184 84.0203 19.0071 84.0203 18.7228V18.2271C84.0203 17.9265 83.9391 17.7071 83.7684 17.5609C83.5978 17.4228 83.3216 17.3496 82.9478 17.3496H76.9841C76.8541 17.3496 76.7972 17.4146 76.7972 17.5365V19.584H76.7891ZM76.7891 21.1765V23.3459C76.7891 23.4759 76.8541 23.5328 76.9759 23.5328H82.9559C83.3459 23.5328 83.6222 23.4596 83.7847 23.3215C83.9472 23.1834 84.0366 22.9559 84.0366 22.6471V22.0946C84.0366 21.794 83.9472 21.5665 83.7684 21.4121C83.5897 21.2578 83.2566 21.1765 82.7691 21.1765H76.7891Z" fill="white"/>
<path d="M91.673 15.3428C91.8843 15.3428 91.9899 15.4484 91.9899 15.6597V25.2228C91.9899 25.434 91.8843 25.5396 91.673 25.5396H90.0968C89.8693 25.5396 89.7637 25.434 89.7637 25.2228V15.6678C89.7637 15.4565 89.8774 15.3509 90.0968 15.3509L91.673 15.3428Z" fill="white"/>
<path d="M106.948 15.3428C107.176 15.3428 107.281 15.4484 107.281 15.6597V17.0896C107.281 17.3171 107.168 17.4228 106.948 17.4228H102.374V25.2228C102.374 25.434 102.268 25.5396 102.057 25.5396H100.465C100.253 25.5396 100.148 25.434 100.148 25.2228V17.4228H95.5734C95.3459 17.4228 95.2402 17.309 95.2402 17.0896V15.6597C95.2402 15.4484 95.354 15.3428 95.5734 15.3428H106.948Z" fill="white"/>
<path d="M118.476 15.3428C119.598 15.3428 120.394 15.5947 120.881 16.0984C121.369 16.6022 121.613 17.3496 121.613 18.3409V19.1696C121.613 20.0065 121.442 20.6646 121.101 21.1521C120.759 21.6396 120.207 21.9484 119.435 22.0865L121.929 25.174C121.978 25.2228 121.994 25.2959 121.97 25.3934C121.954 25.4909 121.873 25.5396 121.734 25.5396H119.858C119.728 25.5396 119.646 25.5234 119.598 25.499C119.549 25.4665 119.5 25.4178 119.451 25.3528L117.144 22.3221H112.431V25.2228C112.431 25.434 112.326 25.5396 112.114 25.5396H110.538C110.311 25.5396 110.205 25.434 110.205 25.2228V15.7815C110.205 15.489 110.351 15.3428 110.644 15.3428H118.476ZM112.448 20.5509H118.029C118.525 20.5509 118.874 20.4453 119.078 20.234C119.281 20.0228 119.386 19.6978 119.386 19.259V18.6496C119.386 18.2109 119.281 17.8859 119.078 17.6746C118.874 17.4634 118.525 17.3578 118.029 17.3578H112.634C112.504 17.3578 112.448 17.4146 112.448 17.5365V20.5509Z" fill="white"/>
<path d="M126.676 15.3428C126.888 15.3428 126.993 15.4484 126.993 15.6597V21.4771C126.993 21.8671 127.026 22.1921 127.091 22.444C127.156 22.704 127.261 22.9071 127.408 23.0534C127.554 23.2078 127.749 23.3134 128.001 23.3703C128.253 23.4353 128.561 23.4678 128.943 23.4678H132.981C133.363 23.4678 133.672 23.4353 133.924 23.3703C134.176 23.3053 134.371 23.1996 134.517 23.0534C134.663 22.899 134.769 22.6959 134.826 22.444C134.883 22.184 134.915 21.8671 134.915 21.4771V15.6597C134.915 15.4484 135.021 15.3428 135.232 15.3428H136.824C137.036 15.3428 137.141 15.4484 137.141 15.6597V21.6965C137.141 22.3953 137.068 22.9884 136.922 23.484C136.776 23.9715 136.54 24.3696 136.215 24.6784C135.89 24.9871 135.468 25.2065 134.948 25.3446C134.428 25.4828 133.802 25.5478 133.063 25.5478H128.862C128.123 25.5478 127.497 25.4828 126.985 25.3446C126.473 25.2065 126.051 24.9871 125.726 24.6784C125.401 24.3696 125.165 23.9715 125.011 23.484C124.856 22.9965 124.783 22.3953 124.783 21.6965V15.6597C124.783 15.4484 124.897 15.3428 125.116 15.3428H126.676Z" fill="white"/>
<path d="M143.404 15.3428C143.616 15.3428 143.802 15.359 143.957 15.3834C144.111 15.4159 144.249 15.4647 144.363 15.554C144.477 15.6353 144.582 15.749 144.68 15.8871C144.769 16.0253 144.867 16.2122 144.964 16.4478L147.995 23.4434C148.036 23.5328 148.101 23.5734 148.198 23.5734H148.377C148.474 23.5734 148.539 23.5328 148.58 23.4434L151.611 16.4478C151.708 16.2122 151.806 16.0253 151.895 15.8871C151.984 15.749 152.09 15.6353 152.212 15.554C152.326 15.4728 152.464 15.4159 152.61 15.3834C152.764 15.3509 152.943 15.3428 153.154 15.3428H154.714C155.218 15.3428 155.559 15.4565 155.738 15.684C155.917 15.9115 155.998 16.3015 155.998 16.854V25.2228C155.998 25.434 155.884 25.5396 155.665 25.5396H154.178C153.967 25.5396 153.861 25.434 153.861 25.2228V17.6096C153.861 17.5121 153.821 17.4634 153.747 17.4634H153.617C153.52 17.4634 153.455 17.504 153.431 17.5771L150.489 24.1096C150.376 24.3696 150.254 24.5971 150.132 24.7759C150.01 24.9546 149.88 25.1009 149.742 25.2228C149.604 25.3365 149.441 25.4259 149.262 25.4746C149.084 25.5234 148.872 25.5478 148.629 25.5478H147.93C147.686 25.5478 147.475 25.5234 147.296 25.4746C147.117 25.4259 146.955 25.3446 146.817 25.2228C146.679 25.109 146.541 24.9546 146.427 24.7759C146.305 24.5971 146.183 24.3778 146.069 24.1096L143.128 17.5771C143.096 17.4959 143.039 17.4634 142.941 17.4634H142.811C142.73 17.4634 142.697 17.5121 142.697 17.6096V25.2228C142.697 25.434 142.592 25.5396 142.381 25.5396H140.894C140.666 25.5396 140.561 25.434 140.561 25.2228V16.854C140.561 16.3015 140.65 15.9115 140.821 15.684C140.999 15.4565 141.341 15.3428 141.852 15.3428H143.404Z" fill="white"/>
</svg>
