<svg width="156" height="30" viewBox="0 0 156 30" fill="none" xmlns="http://www.w3.org/2000/svg">
<path d="M52.8392 16.7642H58.7185C59.5452 16.7642 60.2151 17.4412 60.2151 18.2679C60.2151 19.0945 59.5452 19.7716 58.7185 19.7716H51.6277C51.5137 19.7716 51.4068 19.8143 51.3284 19.8856L49.1905 21.7313C48.8627 22.0164 49.0622 22.5509 49.4898 22.5509H58.3622C58.3622 22.5509 58.3693 22.5509 58.3693 22.5437C58.3693 22.5366 58.3764 22.5366 58.3764 22.5366C58.4905 22.5437 58.5974 22.5509 58.7185 22.5509C61.0702 22.5509 62.9801 20.6339 62.9801 18.2679C62.9801 16.0231 61.2626 14.1773 59.0677 13.9992C59.0677 13.9992 59.0606 13.9992 59.0606 13.992C59.0606 13.9849 59.0606 13.9849 59.0534 13.9849H52.7252C51.8985 13.9849 51.2286 13.3079 51.2286 12.4812C51.2286 11.6474 51.8985 10.9775 52.7252 10.9775H59.8017C59.9157 10.9775 60.0298 10.9348 60.1153 10.8564L62.1036 9.01066C62.4171 8.7256 62.2105 8.19824 61.79 8.19824H52.8463C52.8107 8.19824 52.7679 8.19824 52.7323 8.19824C50.3806 8.19824 48.4707 10.1153 48.4707 12.4812C48.4707 14.8472 50.3806 16.7642 52.7323 16.7642C52.7679 16.7642 52.8036 16.7642 52.8392 16.7642Z" fill="white"/>
<path d="M87.0667 8.19238C86.8102 8.19238 86.6035 8.39905 86.6035 8.66273V22.0889C86.6035 22.3455 86.8102 22.5593 87.0667 22.5593H97.8276C97.9559 22.5593 98.0771 22.5022 98.1697 22.4096L99.5166 20.9629C99.7945 20.6636 99.5879 20.179 99.1745 20.179H89.7819C89.5253 20.179 89.3187 19.9724 89.3187 19.7087V8.66273C89.3187 8.40617 89.112 8.19238 88.8555 8.19238H87.0667Z" fill="white"/>
<path fill-rule="evenodd" clip-rule="evenodd" d="M69.8352 8.19238C69.8352 8.19951 69.828 8.19951 69.8352 8.19238C68.4598 8.25652 67.3552 9.36112 67.291 10.7365V19.7657C67.291 19.8013 67.291 19.8441 67.291 19.8797C67.291 21.3121 68.417 22.4809 69.8352 22.5379H79.5984C81.0094 22.4737 82.1425 21.305 82.1425 19.8797C82.1425 19.8441 82.1425 19.8013 82.1425 19.7657V10.7436C82.0855 9.36824 80.9809 8.25652 79.6055 8.19951H69.8352V8.19238ZM71.6524 10.7436C70.7901 10.7793 70.0988 11.4777 70.0632 12.3471V18.0269C70.0632 18.0482 70.0632 18.0767 70.0632 18.0981C70.0632 18.996 70.7687 19.7372 71.6524 19.7728H77.774C78.6577 19.7372 79.3632 18.996 79.3632 18.0981C79.3632 18.0767 79.3632 18.0482 79.3632 18.0269V12.3471C79.3276 11.4777 78.6363 10.7864 77.774 10.7436H71.6524Z" fill="white"/>
<path fill-rule="evenodd" clip-rule="evenodd" d="M115.159 22.0883C115.159 22.3449 115.366 22.5587 115.622 22.5587H117.447C117.703 22.5587 117.91 22.352 117.91 22.0883V10.9782C117.91 10.9426 117.91 10.8998 117.91 10.8642C117.91 9.4318 116.791 8.26307 115.394 8.20605H106.023C105.987 8.20605 105.945 8.20605 105.909 8.20605C104.455 8.20605 103.279 9.39617 103.279 10.8713C103.279 10.907 103.279 10.9497 103.279 10.9854V22.0955C103.279 22.352 103.486 22.5658 103.743 22.5658H105.567C105.823 22.5658 106.03 22.3591 106.03 22.0955V17.4704C106.03 17.2139 106.237 17.0001 106.493 17.0001H114.717C114.974 17.0001 115.18 17.2067 115.18 17.4704V22.0883H115.159ZM106.009 14.4417V12.1327C106.009 11.2348 106.728 10.5079 107.612 10.5079H113.556C114.439 10.5079 115.159 11.2348 115.159 12.1327V14.4417C115.159 14.6982 114.952 14.912 114.696 14.912H106.472C106.215 14.912 106.009 14.7054 106.009 14.4417Z" fill="white"/>
<path fill-rule="evenodd" clip-rule="evenodd" d="M153.678 22.558C153.422 22.558 153.215 22.3513 153.215 22.0877V17.4626C153.215 17.206 153.008 16.9923 152.752 16.9923H144.435C144.179 16.9923 143.972 17.1989 143.972 17.4626V22.0877C143.972 22.3442 143.765 22.558 143.509 22.558H141.67C141.414 22.558 141.207 22.3513 141.207 22.0877V10.9775C141.207 10.9419 141.207 10.8992 141.207 10.8635C141.207 9.39548 142.397 8.19824 143.865 8.19824C143.901 8.19824 143.944 8.19824 143.979 8.19824H153.457C154.868 8.26238 156.001 9.43111 156.001 10.8564C156.001 10.892 156.001 10.9348 156.001 10.9704V22.0805C156.001 22.3371 155.795 22.5509 155.538 22.5509H153.678V22.558ZM143.965 12.132V14.441C143.965 14.6975 144.172 14.9113 144.428 14.9113H152.745C153.001 14.9113 153.208 14.7047 153.208 14.441V12.132C153.208 11.2341 152.481 10.5072 151.59 10.5072H145.583C144.692 10.5072 143.965 11.2341 143.965 12.132Z" fill="white"/>
<path d="M124.773 8.19238C124.909 8.19238 125.037 8.24939 125.122 8.35629L133.304 18.1124C133.581 18.4402 134.116 18.2406 134.116 17.8059V8.66273C134.116 8.40617 134.323 8.19238 134.579 8.19238H136.404C136.66 8.19238 136.867 8.39905 136.867 8.66273V22.0889C136.867 22.3455 136.66 22.5593 136.404 22.5593H134.137C134.13 22.5593 134.123 22.5521 134.123 22.545C134.123 22.5379 134.123 22.5379 134.116 22.5308L125.792 12.8459C125.514 12.5181 124.98 12.7248 124.98 13.1524V22.096C124.98 22.3526 124.773 22.5664 124.517 22.5664H122.678C122.422 22.5664 122.215 22.3597 122.215 22.096V8.66273C122.215 8.40617 122.422 8.19238 122.678 8.19238H124.773Z" fill="white"/>
<path d="M6.03859 23.0507C6.26663 22.8226 6.57307 22.6943 6.89376 22.6943H36.5753C37.1169 22.6943 37.3877 23.35 37.0029 23.7277L31.1379 29.5856C30.9098 29.8136 30.6034 29.9419 30.2827 29.9419H0.60825C0.0666415 29.9419 -0.204163 29.2863 0.180664 28.9086L6.03859 23.0507Z" fill="white"/>
<path d="M6.03859 1.15808C6.26663 0.930034 6.57307 0.801758 6.89376 0.801758H36.5753C37.1169 0.801758 37.3877 1.45739 37.0029 1.83509L31.1379 7.69301C30.9098 7.92106 30.6034 8.04934 30.2827 8.04934H0.60825C0.0666415 8.04934 -0.204163 7.3937 0.180664 7.016L6.03859 1.15808Z" fill="white"/>
<path d="M31.1379 12.0331C30.9098 11.805 30.6034 11.6768 30.2827 11.6768H0.60825C0.0666415 11.6768 -0.204163 12.3324 0.180664 12.7101L6.04572 18.568C6.27376 18.7961 6.5802 18.9243 6.90089 18.9243H36.5825C37.1241 18.9243 37.3949 18.2687 37.01 17.891L31.1379 12.0331Z" fill="white"/>
</svg>
