<svg width="156" height="29" viewBox="0 0 156 29" fill="none" xmlns="http://www.w3.org/2000/svg">
<path fill-rule="evenodd" clip-rule="evenodd" d="M17.289 20.4913L15.1701 18.3207C14.4207 19.0442 13.5938 19.6385 12.7152 20.1295C11.785 20.5946 10.7514 20.8272 9.71775 20.8014C8.86502 20.8014 8.01228 20.6205 7.21123 20.2587C6.46186 19.8969 5.76417 19.406 5.22152 18.8117C4.65304 18.1915 4.21375 17.4421 3.92951 16.6411C3.61942 15.7883 3.46438 14.8839 3.46438 13.9795C3.46438 13.0751 3.61942 12.1965 3.92951 11.3438C4.23959 10.5686 4.67888 9.84505 5.22152 9.19904C5.79001 8.57887 6.46186 8.0879 7.21123 7.75198C7.98644 7.39021 8.83918 7.20933 9.71775 7.20933C10.7255 7.18349 11.7333 7.41605 12.6119 7.88118C13.4904 8.34631 14.2915 8.9148 15.015 9.58665L17.1598 7.10597C16.7205 6.66668 16.2295 6.27908 15.7386 5.91731C15.2217 5.55555 14.6791 5.24547 14.0848 4.98707C13.4646 4.70282 12.7928 4.49609 12.1209 4.36689C11.3457 4.21185 10.5446 4.13433 9.74359 4.16017C8.37405 4.13433 7.03035 4.41857 5.79001 4.93538C4.62719 5.42635 3.56774 6.14988 2.68917 7.05429C1.83644 7.95871 1.16459 8.99232 0.69946 10.1551C0.234334 11.3696 -0.0240712 12.6875 0.00176918 14.0054C0.00176918 15.3232 0.234333 16.6411 0.7253 17.8556C1.19043 19.0184 1.88812 20.0778 2.74085 20.9822C3.61942 21.8608 4.65304 22.5844 5.79001 23.0753C7.00451 23.5921 8.32237 23.8505 9.64023 23.8505C10.4671 23.8505 11.2682 23.773 12.0692 23.618C12.7669 23.4629 13.4388 23.2562 14.0589 22.9461C14.6533 22.636 15.2476 22.3001 15.7902 21.8867C16.2812 21.4991 16.798 21.0081 17.289 20.4913Z" fill="white"/>
<path fill-rule="evenodd" clip-rule="evenodd" d="M60.2616 9.56122C60.2616 8.91521 60.5717 8.32089 61.0626 7.93328C61.6053 7.49399 62.3546 7.28727 63.3366 7.28727C64.2151 7.28727 65.0679 7.46815 65.8948 7.80408C66.7992 8.19168 67.6778 8.68265 68.453 9.25114L70.2359 6.71878C69.3057 5.96941 68.2462 5.34924 67.1351 4.9358C65.9464 4.49651 64.6803 4.28979 63.4141 4.31563C62.5355 4.31563 61.6569 4.44483 60.8301 4.70324C60.0807 4.9358 59.383 5.3234 58.8145 5.84021C58.246 6.33118 57.8067 6.9255 57.4967 7.59735C57.1607 8.29504 56.9798 9.07026 57.0057 9.87131C56.9798 10.6465 57.1349 11.4217 57.4191 12.1194C57.7034 12.7396 58.1168 13.2564 58.6336 13.6957C59.228 14.1608 59.8998 14.5226 60.5975 14.781C61.4761 15.0911 62.3805 15.3495 63.2849 15.5562C64.0084 15.7371 64.7319 15.9438 65.4296 16.1764C65.8948 16.3314 66.3082 16.5381 66.7217 16.8224C67.0059 17.0032 67.2385 17.2616 67.3677 17.5717C67.4969 17.856 67.5486 18.1661 67.5486 18.502C67.5744 19.1997 67.2385 19.8715 66.6441 20.2591C65.9206 20.7243 65.0679 20.9568 64.2151 20.931C63.1299 20.9568 62.0187 20.7243 61.0109 20.285C60.0032 19.794 59.0729 19.1997 58.246 18.4503L56.2305 20.8276C58.3494 22.8173 61.166 23.9026 64.0859 23.8768C65.0162 23.8768 65.9464 23.7476 66.825 23.4892C67.6002 23.2566 68.3238 22.869 68.9439 22.378C69.5383 21.8871 70.0034 21.2927 70.3135 20.5951C70.6494 19.8198 70.8044 19.0188 70.8044 18.1661C70.8044 17.4425 70.6752 16.7448 70.4168 16.073C70.1584 15.4787 69.7708 14.936 69.2799 14.5226C68.7114 14.0316 68.0654 13.644 67.3677 13.3856C66.5149 13.0497 65.6364 12.7654 64.732 12.5329C63.8275 12.3261 63.0782 12.0936 62.5097 11.9127C62.0187 11.7577 61.5794 11.5509 61.1401 11.2667C60.8301 11.0858 60.5975 10.8016 60.4425 10.4915C60.3133 10.2072 60.2616 9.89715 60.2616 9.56122Z" fill="white"/>
<path fill-rule="evenodd" clip-rule="evenodd" d="M97.1603 9.81965V23.4117H100.442V4.4707H96.9019L91.1654 13.4373L85.4288 4.4707H81.8887V23.4117H85.1704V9.87134L91.0878 18.7604H91.1912L97.1603 9.81965Z" fill="white"/>
<path fill-rule="evenodd" clip-rule="evenodd" d="M128.092 14.0573C128.092 14.9617 127.937 15.8403 127.626 16.693C127.342 17.494 126.877 18.2176 126.309 18.8377C125.12 20.1039 123.466 20.8274 121.735 20.8016C120.856 20.8016 119.952 20.6207 119.151 20.259C118.376 19.8972 117.678 19.4062 117.109 18.7861C116.541 18.1659 116.076 17.4165 115.792 16.6155C115.146 14.91 115.146 13.0495 115.792 11.344C116.076 10.543 116.515 9.81946 117.084 9.19929C118.272 7.93311 119.926 7.20958 121.657 7.23542C122.536 7.23542 123.44 7.4163 124.241 7.77807C125.017 8.13983 125.714 8.6308 126.283 9.25097C126.851 9.87114 127.316 10.6205 127.626 11.4216C127.937 12.2485 128.092 13.1529 128.092 14.0573ZM131.58 13.9798C131.58 12.6619 131.348 11.3699 130.857 10.1554C130.391 8.99257 129.72 7.93311 128.841 7.0287C127.962 6.12429 126.903 5.40075 125.74 4.90979C124.474 4.36714 123.104 4.10873 121.735 4.13457C119.048 4.10873 116.463 5.16819 114.577 7.08037C113.673 7.98479 112.975 9.04425 112.51 10.2329C111.528 12.6877 111.528 15.401 112.51 17.8558C112.975 19.0186 113.673 20.0781 114.525 20.9825C115.404 21.8869 116.463 22.6104 117.626 23.1014C118.892 23.644 120.262 23.9025 121.632 23.8766C123.001 23.9025 124.371 23.6182 125.637 23.0756C126.825 22.5846 127.885 21.8352 128.763 20.9308C129.668 20.0264 130.366 18.9669 130.831 17.7783C131.348 16.5896 131.58 15.2976 131.58 13.9798Z" fill="white"/>
<path fill-rule="evenodd" clip-rule="evenodd" d="M145.405 9.56122C145.405 8.91521 145.715 8.32089 146.206 7.93328C146.749 7.49399 147.498 7.28727 148.48 7.28727C149.359 7.28727 150.212 7.46815 151.038 7.80408C151.943 8.19168 152.821 8.68265 153.597 9.25114L155.38 6.71878C154.449 5.96941 153.39 5.37508 152.279 4.9358C151.09 4.49651 149.824 4.28979 148.558 4.31563C147.679 4.31563 146.801 4.44483 145.974 4.70324C145.224 4.9358 144.527 5.3234 143.958 5.84021C143.39 6.33118 142.95 6.9255 142.64 7.59735C142.304 8.29504 142.123 9.07026 142.149 9.87131C142.123 10.6465 142.279 11.4217 142.563 12.1194C142.847 12.7396 143.26 13.2564 143.777 13.6957C144.372 14.1608 145.043 14.5226 145.741 14.781C146.62 15.0911 147.524 15.3495 148.429 15.5562C149.152 15.7371 149.876 15.9438 150.573 16.1764C151.038 16.3314 151.452 16.5381 151.865 16.8224C152.15 17.0032 152.382 17.2616 152.511 17.5717C152.641 17.856 152.692 18.1661 152.692 18.502C152.718 19.1997 152.382 19.8715 151.788 20.2591C151.064 20.7243 150.212 20.9568 149.359 20.931C148.273 20.9568 147.162 20.7243 146.18 20.285C145.173 19.794 144.242 19.1997 143.415 18.4503L141.426 20.8535C143.545 22.8432 146.361 23.9285 149.281 23.9026C150.212 23.9026 151.142 23.7734 152.02 23.515C152.796 23.2825 153.519 22.8949 154.139 22.4039C154.734 21.9129 155.199 21.3186 155.509 20.6209C155.845 19.8457 156 19.0188 156 18.1919C156 17.4684 155.871 16.7707 155.612 16.0988C155.354 15.5045 154.966 14.9619 154.475 14.5484C153.907 14.0574 153.261 13.6698 152.563 13.4114C151.71 13.0755 150.832 12.7913 149.927 12.5587C149.023 12.352 148.273 12.1194 147.705 11.9385C147.214 11.7835 146.775 11.5509 146.335 11.2667C146.025 11.0858 145.793 10.8016 145.638 10.4915C145.457 10.2072 145.405 9.89715 145.405 9.56122Z" fill="white"/>
<path fill-rule="evenodd" clip-rule="evenodd" d="M39.874 8.26892L30.8558 17.313C30.7266 17.0805 30.6232 16.8479 30.5198 16.6154C29.8997 14.9357 29.8997 13.0752 30.5198 11.3698C30.8299 10.5687 31.2692 9.84518 31.8377 9.22501C32.4062 8.60484 33.078 8.11388 33.8274 7.77795C34.6284 7.41619 35.5329 7.2353 36.4114 7.2353C37.29 7.2353 38.1686 7.41619 38.9955 7.77795C39.3314 7.93299 39.5898 8.08803 39.874 8.26892ZM39.073 20.233C38.2719 20.5948 37.3675 20.7757 36.489 20.7757C35.2745 20.8015 34.0858 20.4397 33.078 19.7679L42.0705 10.7238C42.1997 10.9563 42.303 11.1889 42.3806 11.4214C43.0007 13.1011 43.0007 14.9616 42.3806 16.667C42.0963 17.4681 41.657 18.1916 41.0885 18.8118C40.5201 19.432 39.8482 19.8971 39.073 20.233ZM40.4425 23.0754C41.6053 22.5586 42.6906 21.8351 43.5951 20.9307C44.4736 20.0263 45.1713 18.9668 45.6623 17.804C46.6442 15.375 46.6442 12.6359 45.6623 10.2069C45.378 9.50925 45.0421 8.86324 44.6028 8.24307L50.4686 2.35147L48.143 0L42.2514 5.91744C41.7087 5.52984 41.1144 5.21976 40.5201 4.98719C39.2539 4.47039 37.8843 4.18614 36.5148 4.21198C33.8532 4.18614 31.2692 5.2456 29.4087 7.13194C28.5301 8.03635 27.8066 9.09581 27.3415 10.2586C26.0494 13.4112 26.4371 17.0288 28.4268 19.8196L22.5352 25.6853L24.8608 28.0368L30.7524 22.1194C31.295 22.4811 31.8635 22.7912 32.4579 23.0496C33.724 23.5664 35.0936 23.8507 36.4631 23.8248C37.8068 23.8765 39.1764 23.5923 40.4425 23.0754Z" fill="white"/>
</svg>
