<svg width="155" height="43" viewBox="0 0 155 43" fill="none" xmlns="http://www.w3.org/2000/svg">
<path d="M43.252 5.96865H50.3824C52.1943 5.96865 53.519 6.45571 54.3763 7.29344C55.214 8.01428 55.5842 8.98839 55.5842 9.94301C55.5842 10.3132 55.5842 10.7807 55.4673 11.1509C55.2335 11.7549 54.8633 12.3588 54.3763 12.8458C54.1425 13.0796 53.8892 13.216 53.6554 13.3329C54.4931 13.5667 55.2335 14.0537 55.8374 14.6577C56.3245 15.2616 56.5583 15.9825 56.5583 17.0735C56.5583 17.6774 56.4414 18.3983 56.1881 18.8853C55.9543 19.3724 55.4673 19.8594 54.9802 20.2101C54.3763 20.5803 53.7723 20.814 53.1684 21.0478C52.4475 21.2816 51.5903 21.2816 50.7526 21.2816H43.3688V5.92969H43.252V5.96865ZM49.7785 12.2419C50.3824 12.2419 50.9864 12.125 51.5903 11.8717C52.0774 11.638 52.3112 11.1509 52.3112 10.6639C52.3112 10.1768 52.0774 9.68974 51.7072 9.45596C51.2201 9.0858 50.6162 8.9689 50.0123 9.0858H46.6224V12.3393H49.759V12.2419H49.7785ZM50.6162 18.4177C51.2202 18.4177 51.8241 18.3009 52.428 18.0476C52.9151 17.8138 53.1489 17.3267 53.032 16.7228C53.032 16.2357 52.7982 15.7487 52.428 15.5149C52.0579 15.2811 51.337 15.0279 50.4993 15.0279H46.5055V18.4177H50.6162Z" fill="white"/>
<path d="M60.7656 5.96875H64.1555V21.4376H60.7656V5.96875Z" fill="white"/>
<path d="M69.3574 5.96875H72.494L79.7414 15.515V5.96875H83.1118V21.4376H80.2285L72.6109 11.6381V21.4376H69.3574V5.96875Z" fill="white"/>
<path d="M93.3993 5.85156H96.5359L103.179 21.4373H99.6725L98.2308 17.9305H91.7043L90.2626 21.4373H86.7559L93.3993 5.85156ZM97.023 15.0277L94.9773 9.9623L92.9317 15.0277H97.023Z" fill="white"/>
<path d="M106.799 5.96875H109.935L117.183 15.515V5.96875H120.573V21.4376H117.67L110.169 11.6381V21.4376H106.799V5.96875Z" fill="white"/>
<path d="M132.89 21.6708C131.799 21.6708 130.708 21.437 129.753 21.0668C127.825 20.2291 126.364 18.7679 125.526 16.8392C125.156 15.8651 124.922 14.7936 124.922 13.7026C124.922 11.6569 125.76 9.59184 127.221 8.03327C127.942 7.31243 128.799 6.70848 129.753 6.33832C130.844 5.85127 131.935 5.73438 133.007 5.73438C133.611 5.73438 134.332 5.73438 134.936 5.85127C135.54 5.96816 136.027 6.08505 136.514 6.33832C137.001 6.57211 137.488 6.82538 137.839 7.05916C138.209 7.29295 138.676 7.66311 139.046 8.03327L137.001 10.566C136.397 10.0789 135.793 9.59184 135.189 9.24116C134.585 8.89048 133.864 8.75411 133.143 8.75411C132.539 8.75411 131.935 8.871 131.332 9.12427C130.728 9.35805 130.241 9.72821 129.89 10.2153C129.539 10.7023 129.169 11.1894 128.916 11.7933C128.682 12.3973 128.546 13.0012 128.546 13.6052C128.546 14.2091 128.662 14.93 128.916 15.5339C129.169 16.1378 129.403 16.6249 129.89 17.1119C130.728 18.0861 131.935 18.5536 133.143 18.5536C133.864 18.5536 134.721 18.4367 135.442 18.0666C136.046 17.6964 136.767 17.2288 137.254 16.7418L139.417 18.9043C139.046 19.2745 138.579 19.742 138.209 20.1122C137.722 20.4824 137.235 20.7161 136.767 20.9499C136.28 21.1837 135.676 21.437 135.072 21.5539C134.215 21.6708 133.494 21.6708 132.89 21.6708Z" fill="white"/>
<path d="M143.291 5.96875H154.883V8.98848H146.545V12.1251H153.909V15.1448H146.545V18.4178H155V21.4376H143.291V5.96875Z" fill="white"/>
<path d="M47.5939 36.6526C46.7561 36.6526 45.8989 36.5357 45.1781 36.1656C44.4573 35.9318 43.7364 35.4447 42.9961 34.8408L44.204 33.516C44.691 34.0031 45.1781 34.2368 45.782 34.607C46.386 34.8408 46.9899 34.9772 47.5939 34.9772C48.0809 34.9772 48.568 34.8603 49.0356 34.607C49.4057 34.3732 49.5226 34.0031 49.5226 33.6329C49.5226 33.516 49.5226 33.2627 49.4057 33.1458C49.2888 33.0289 49.1719 32.7757 49.0356 32.6588C48.8018 32.5419 48.5485 32.425 48.3147 32.2886C47.9446 32.1717 47.477 32.0548 47.1068 31.9185C46.6198 31.8016 46.0158 31.6847 45.5288 31.4314C45.1586 31.3145 44.691 31.0613 44.4378 30.8275C44.204 30.5937 43.9507 30.3404 43.7169 29.9897C43.4831 29.5027 43.4831 29.0156 43.4831 28.6649C43.4831 28.1779 43.6 27.8272 43.7169 27.3402C43.8338 26.97 44.204 26.6193 44.4378 26.3661C44.8079 26.1323 45.1586 25.879 45.6457 25.7621C46.1327 25.6452 46.6198 25.5283 47.0873 25.5283C47.8082 25.5283 48.529 25.6452 49.2693 25.8985C49.8733 26.1323 50.4772 26.5024 51.0812 26.8726L50.1071 28.3143C49.62 27.9441 49.133 27.7103 48.6654 27.4765C48.1783 27.2427 47.6913 27.2427 47.2237 27.2427C46.7367 27.2427 46.2496 27.3596 45.8989 27.6129C45.6651 27.8467 45.4119 28.2169 45.4119 28.587C45.4119 28.8208 45.4119 28.9572 45.5288 29.191C45.6457 29.3079 45.7626 29.5611 45.8989 29.678C46.1327 29.7949 46.386 29.9118 46.7367 30.0482C47.1068 30.1651 47.4575 30.282 48.0615 30.4183C48.5485 30.5352 49.0356 30.6521 49.6395 30.9054C50.0097 31.0223 50.3603 31.2756 50.7305 31.5093C50.9643 31.7431 51.2176 32.1133 51.3344 32.3471C51.4513 32.7172 51.5682 33.0679 51.5682 33.555C51.5682 34.042 51.4513 34.5291 51.3344 34.8798C51.1007 35.2499 50.8474 35.6006 50.4967 35.9708C50.1266 36.2045 49.7759 36.4578 49.2888 36.5747C48.6849 36.5357 48.0809 36.6526 47.5939 36.6526Z" fill="white"/>
<path d="M53.6328 25.666H55.6979L58.9514 30.7314L62.3413 25.666H64.387V36.5371H62.4582V28.6857L59.0683 33.7511H58.9514L55.581 28.6857V36.5371H53.6328V25.666Z" fill="white"/>
<path d="M70.9159 25.5479H72.7277L77.4424 36.4189H75.3968L74.3058 33.7693H69.2404L68.1494 36.4189H66.2207L70.9159 25.5479ZM73.7019 32.1913L71.7731 27.8467L69.9613 32.1913H73.7019Z" fill="white"/>
<path d="M79.3708 25.666H84.2024C84.8063 25.666 85.4103 25.7829 86.0142 25.8998C86.5013 26.0167 86.9883 26.3869 87.339 26.7375C87.5728 26.9713 87.8261 27.3415 88.0598 27.8285C88.1767 28.1987 88.2936 28.6663 88.2936 29.1533C88.2936 29.5235 88.1767 29.991 88.0598 30.3612C87.9429 30.7314 87.6897 30.9652 87.5728 31.3353C87.339 31.5691 87.0857 31.8224 86.735 32.0562C86.3649 32.2899 86.0142 32.4263 85.644 32.5432L88.5469 36.6539H86.248L83.5984 32.9134H81.1826V36.6539H79.2539L79.3708 25.666ZM84.0855 30.9846C84.6894 30.9846 85.2934 30.8677 85.6635 30.4976C86.0337 30.1274 86.2675 29.6599 86.2675 29.1728C86.2675 28.6857 86.0337 28.1987 85.6635 27.848C85.1765 27.4779 84.5725 27.361 83.9686 27.361H81.1826V30.9846H84.0855Z" fill="white"/>
<path d="M93.2607 27.361H89.7539V25.666H98.5793V27.361H95.0725V36.5371H93.1438L93.2607 27.361Z" fill="white"/>
<path d="M110.307 36.6523C109.586 36.6523 108.865 36.5354 108.125 36.1652C106.8 35.5613 105.709 34.5872 105.222 33.2624C104.988 32.5416 104.735 31.8207 104.852 31.0804C104.852 30.3596 104.969 29.6387 105.222 28.8984C105.709 27.5736 106.8 26.4826 108.125 25.8787C108.846 25.6449 109.566 25.3916 110.424 25.3916C110.911 25.3916 111.398 25.3916 111.748 25.5085C112.119 25.6254 112.469 25.7423 112.839 25.8787C113.21 25.9955 113.443 26.2488 113.814 26.3657C114.047 26.5995 114.417 26.8528 114.651 27.0866L113.443 28.5282C113.073 28.1581 112.606 27.8074 112.119 27.5541C111.632 27.3203 111.028 27.184 110.424 27.184C109.937 27.184 109.45 27.3009 108.982 27.4177C108.495 27.6515 108.144 27.9048 107.774 28.2555C107.404 28.6256 107.17 28.9763 107.053 29.4634C106.936 29.9504 106.819 30.4375 106.819 30.9051C106.819 31.3921 106.936 31.8792 107.053 32.3467C107.17 32.8143 107.423 33.1845 107.774 33.5546C108.144 33.9248 108.495 34.1586 108.982 34.3924C109.469 34.6261 109.956 34.7625 110.424 34.6261C111.028 34.6261 111.632 34.5092 112.119 34.256C112.606 34.0222 113.093 33.652 113.56 33.165L114.768 34.3729C114.534 34.6067 114.164 34.9768 113.93 35.2106C113.56 35.4444 113.326 35.6977 112.956 35.8145C112.586 35.9314 112.235 36.1847 111.748 36.1847C111.261 36.6523 110.774 36.6523 110.307 36.6523Z" fill="white"/>
<path d="M116.697 25.666H118.509V30.1274H123.711V25.666H125.64V36.5371H123.711V31.9393H118.509V36.5371H116.697V25.666Z" fill="white"/>
<path d="M132.281 25.5479H134.093L138.808 36.4189H136.762L135.671 33.7693H130.606L129.515 36.4189H127.586L132.281 25.5479ZM134.95 32.1913L133.138 27.8467L131.327 32.1913H134.95Z" fill="white"/>
<path d="M140.74 25.666H142.688V36.5371H140.74V25.666Z" fill="white"/>
<path d="M145.568 25.666H147.263L153.069 33.1472V25.666H154.998V36.5371H153.42L147.517 28.8026V36.5371H145.568V25.666Z" fill="white"/>
<path d="M21.9953 35.8153V40.53L17.8846 42.9458L13.8908 40.53V35.8153L17.8846 38.2311L21.9953 35.8153ZM0 19.5088L3.99384 21.9246V30.0096L10.871 34.1204V38.8351L0 32.4254V19.5088ZM35.7692 19.5088V32.4449L24.7813 38.8545V34.1399L31.6585 30.0291V21.944L35.7692 19.5088ZM24.7618 13.0991L28.8725 15.5149V20.2296L21.9953 24.3403V32.5423L18.0015 34.9581L14.0271 32.5423V24.3209L6.89668 20.2101V15.4954L11.0074 13.0797L17.8846 17.1904L24.7618 13.0991ZM6.89668 23.6L10.8905 26.0158V30.7305L6.89668 28.3147V23.6ZM28.8725 23.6V28.3147L24.8787 30.7305V26.0158L28.8725 23.6ZM3.99384 8.98841L8.10457 11.4042L3.99384 13.82V18.5347L0 16.1189V11.4042L3.99384 8.98841ZM31.7754 8.98841L35.8861 11.4042V16.1189L31.7754 18.5347V13.82L27.7815 11.4042L31.7754 8.98841ZM17.8846 8.98841L21.9953 11.4042L17.8846 13.82L13.8908 11.4042L17.8846 8.98841ZM17.8846 0.90332L28.8725 7.31295L24.8787 9.72873L18.0015 5.618L10.9879 9.72873L6.99409 7.31295L17.8846 0.90332Z" fill="white"/>
</svg>
