<svg width="157" height="34" viewBox="0 0 157 34" fill="none" xmlns="http://www.w3.org/2000/svg">
<path d="M27.7974 10.2841C27.1141 9.86926 26.2355 9.86926 25.4789 10.2841L20.183 13.5056L16.5711 15.6045L11.2752 18.8259C10.5918 19.2408 9.71324 19.2408 8.95668 18.8259L4.73459 16.3122C4.05125 15.8973 3.58755 15.1164 3.58755 14.2866V9.33235C3.58755 8.50257 4.00244 7.72161 4.73459 7.30672L8.88346 4.86621C9.56681 4.45133 10.4454 4.45133 11.2019 4.86621L15.3508 7.30672C16.0342 7.72161 16.4979 8.50257 16.4979 9.33235V12.5538L20.1098 10.3818V7.16029C20.1098 6.33052 19.6949 5.54955 18.9628 5.13467L11.2752 0.522103C10.5918 0.107216 9.71324 0.107216 8.95668 0.522103L1.14704 5.13467C0.390483 5.54955 0 6.33052 0 7.16029V16.4342C0 17.264 0.414888 18.045 1.14704 18.4599L8.95668 23.0724C9.64002 23.4873 10.5186 23.4873 11.2752 23.0724L16.5711 19.9242L20.183 17.7521L25.4789 14.6039C26.1623 14.189 27.0409 14.189 27.7974 14.6039L31.9463 17.0444C32.6296 17.4593 33.0933 18.2402 33.0933 19.07V24.0242C33.0933 24.854 32.6785 25.635 31.9463 26.0498L27.7974 28.5636C27.1141 28.9785 26.2355 28.9785 25.4789 28.5636L21.3301 26.1231C20.6467 25.7082 20.183 24.9272 20.183 24.0974V20.876L16.5711 23.048V26.2695C16.5711 27.0993 16.986 27.8802 17.7181 28.2951L25.5278 32.9077C26.2111 33.3226 27.0897 33.3226 27.8462 32.9077L35.6559 28.2951C36.3392 27.8802 36.8029 27.0993 36.8029 26.2695V16.9956C36.8029 16.1658 36.388 15.3848 35.6559 14.9699L27.7974 10.2841Z" fill="white"/>
<path d="M51.2025 30.2477V22.5357C52.0323 23.5851 53.5454 24.1709 55.2782 24.1709C59.7199 24.1709 62.7462 20.9738 62.7462 16.1172C62.7462 11.2605 59.9884 8.06348 55.6443 8.06348C53.6431 8.06348 52.1055 8.79563 51.2025 10.0159V8.30753H46.9316V30.2233H51.2025V30.2477ZM54.7657 20.4613C52.4716 20.4613 50.9585 18.7285 50.9585 16.1172C50.9585 13.4814 52.4716 11.7486 54.7657 11.7486C57.011 11.7486 58.5485 13.4814 58.5485 16.1172C58.5241 18.7285 56.9866 20.4613 54.7657 20.4613Z" fill="white"/>
<path d="M72.4355 24.1709C77.1945 24.1709 80.6112 20.7541 80.6112 16.1172C80.6112 11.4802 77.1945 8.06348 72.4355 8.06348C67.6765 8.06348 64.2598 11.4802 64.2598 16.1172C64.2598 20.7541 67.6765 24.1709 72.4355 24.1709ZM72.4355 20.4613C70.1414 20.4613 68.5551 18.7041 68.5551 16.1172C68.5551 13.5058 70.117 11.7486 72.4355 11.7486C74.7296 11.7486 76.3159 13.5058 76.3159 16.1172C76.3159 18.7041 74.7296 20.4613 72.4355 20.4613Z" fill="white"/>
<path d="M87.4447 23.9264V1.54688H83.1738V23.9264H87.4447Z" fill="white"/>
<path d="M100.281 8.33203L97.0597 18.3869L93.8138 8.33203H89.4453L95.0585 23.8049L92.7888 30.2478H96.8645L99.0365 23.8781L104.65 8.33203H100.281Z" fill="white"/>
<path d="M116.679 9.86945C115.825 8.79563 114.288 8.06348 112.408 8.06348C107.894 8.06348 105.16 11.2605 105.16 16.1172C105.16 20.9738 107.894 24.1709 112.482 24.1709C114.288 24.1709 115.923 23.4875 116.728 22.3405V24.3905C116.728 25.8548 115.776 26.8554 114.483 26.8554H107.332V30.2233H115.142C118.632 30.2233 120.975 28.0757 120.975 24.8298V8.30753H116.679V9.86945ZM113.141 20.4613C110.871 20.4613 109.358 18.7529 109.358 16.1172C109.358 13.4814 110.871 11.7486 113.141 11.7486C115.435 11.7486 116.948 13.4814 116.948 16.1172C116.948 18.7529 115.435 20.4613 113.141 20.4613Z" fill="white"/>
<path d="M131.738 24.1709C136.497 24.1709 139.914 20.7541 139.914 16.1172C139.914 11.4802 136.497 8.06348 131.738 8.06348C126.979 8.06348 123.562 11.4802 123.562 16.1172C123.562 20.7541 126.979 24.1709 131.738 24.1709ZM131.738 20.4613C129.444 20.4613 127.858 18.7041 127.858 16.1172C127.858 13.5058 129.42 11.7486 131.738 11.7486C134.032 11.7486 135.619 13.5058 135.619 16.1172C135.594 18.7041 134.032 20.4613 131.738 20.4613Z" fill="white"/>
<path d="M146.53 23.9258V15.3841C146.53 13.3828 147.848 11.9185 149.727 11.9185C151.508 11.9185 152.704 13.2852 152.704 15.1644V23.9258H156.999V14.2126C156.999 10.625 154.73 8.08691 151.215 8.08691C149.092 8.08691 147.384 8.98991 146.505 10.503V8.33097H142.234V23.9258H146.53Z" fill="white"/>
</svg>
