<svg width="155" height="50" viewBox="0 0 155 50" fill="none" xmlns="http://www.w3.org/2000/svg">
<path d="M3.59695 12.1279C4.92024 13.4512 6.24352 14.7513 7.59003 16.0978C5.80243 18.3961 5.10596 20.9963 5.70957 23.875C6.10423 25.8483 7.12572 27.5199 8.63473 28.8432C11.676 31.513 16.5048 32.2094 20.5675 29.0521C22.0069 30.5147 23.4695 31.954 24.9321 33.4398C26.4411 31.9076 27.9037 30.445 29.3663 29.0057C33.8701 32.4648 39.0007 31.3504 41.9027 28.3788C44.9439 25.268 45.6636 20.2302 42.5063 16.1674C43.8296 14.8442 45.1529 13.5209 46.4529 12.1976C51.5604 19.998 52.0015 33.5095 42.4831 42.9118C33.3593 51.9427 18.1996 52.3838 8.51865 43.8172C-1.58013 34.9024 -1.99801 20.9499 3.59695 12.1279Z" fill="white"/>
<path d="M5.26758 9.71284C14.9021 -3.24146 35.0996 -3.26467 44.8037 9.80571C38.2105 16.3989 31.6173 22.9922 25.0705 29.539C18.5005 22.9457 11.9072 16.3293 5.26758 9.71284ZM25.0473 24.9423C30.1547 19.8813 35.2621 14.7971 40.3928 9.71284C32.0352 0.937346 17.4326 1.35523 9.72497 9.61998C14.8092 14.7042 19.9166 19.8116 25.0473 24.9423Z" fill="white"/>
<path d="M40.5089 18.0938C42.4823 20.601 42.2037 24.362 39.8589 26.6603C37.5373 28.9122 33.7996 29.1212 31.4316 27.1711C34.4497 24.1298 37.4909 21.1118 40.5089 18.0938Z" fill="white"/>
<path d="M18.5724 27.1713C16.158 29.1214 12.3971 28.866 10.0987 26.5677C7.80039 24.2461 7.54502 20.5084 9.49513 18.1172C12.5132 21.112 15.5312 24.13 18.5724 27.1713Z" fill="white"/>
<path d="M82.6696 17.6523C81.4856 18.6506 80.3016 19.6721 79.0712 20.7168C77.8872 19.6953 76.5871 18.9292 75.0085 18.6506C71.6422 18.0934 68.7171 20.1364 68.1831 23.5259C67.9045 25.2903 68.067 26.985 68.926 28.5636C70.7136 31.8835 74.5906 32.1621 77.4461 30.7227C77.6086 30.6531 77.7479 30.3977 77.7479 30.2352C77.7944 29.5387 77.7711 28.8422 77.7711 28.0761C76.355 28.0761 75.0085 28.0761 73.6155 28.0761C73.6155 26.5903 73.6155 25.2206 73.6155 23.7348C76.6104 23.7348 79.6052 23.7348 82.6928 23.7348C82.7161 23.9205 82.7625 24.1527 82.7625 24.3848C82.7625 27.2171 82.7857 30.0494 82.7393 32.905C82.7393 33.2532 82.5768 33.7407 82.2982 33.9032C78.4212 36.5266 71.7119 37.3624 67.3241 34.4604C64.6311 32.696 63.1453 30.1423 62.7739 27.0082C62.3328 23.2937 62.9828 19.8578 65.5829 16.9791C67.1848 15.2147 69.2278 14.2396 71.5494 13.8914C75.4496 13.311 79.0016 14.1468 81.9732 16.863C82.1589 17.0255 82.3214 17.2112 82.4839 17.3969C82.5535 17.4202 82.6 17.513 82.6696 17.6523Z" fill="white"/>
<path d="M111.225 36.2949C107.116 36.2949 104.167 34.2287 103.309 30.491C101.962 24.6175 106.071 19.9279 112.363 20.6244C115.706 20.9958 118.166 22.6906 119.095 26.0336C120.627 31.7447 116.89 36.4574 111.225 36.2949ZM111.248 24.9193C109.321 24.9193 107.952 26.3354 107.952 28.3784C107.928 30.4214 109.391 32.0232 111.248 32.0232C113.105 32.0232 114.568 30.4214 114.568 28.3784C114.522 26.3586 113.175 24.9193 111.248 24.9193Z" fill="white"/>
<path d="M90.7012 20.9264C90.7012 21.4604 90.7012 21.9479 90.7012 22.2265C91.9084 21.6925 93.0924 20.9264 94.3692 20.6943C97.6194 20.0907 100.382 21.6461 100.568 25.2445C100.754 28.7965 100.614 32.3717 100.614 36.063C99.2677 36.063 97.8284 36.0862 96.3658 36.0166C96.2033 36.0166 95.9247 35.529 95.9247 35.2504C95.8782 32.7199 95.9015 30.1894 95.855 27.6589C95.8086 25.616 95.1586 24.9427 93.487 24.9427C91.862 24.9427 90.7708 26.0339 90.7244 27.7982C90.678 30.3055 90.7244 32.7896 90.7012 35.2969C90.7012 35.5058 90.678 35.7148 90.6547 36.0398C89.1922 36.0398 87.7296 36.063 86.267 35.9933C86.1045 35.9933 85.8491 35.4826 85.8259 35.204C85.7795 33.1843 85.8027 31.1877 85.8027 29.168C85.8027 26.7535 85.8027 24.3391 85.8027 21.9479C85.8027 21.6229 85.8027 21.2979 85.8027 20.9264C87.4974 20.9264 89.0296 20.9264 90.7012 20.9264Z" fill="white"/>
<path d="M152.41 25.7543C151.458 25.29 150.599 24.7793 149.671 24.4543C149.067 24.2453 148.185 24.0828 147.906 24.8721C147.604 25.7311 148.556 25.8472 149.067 26.1026C150.088 26.5669 151.18 26.8919 152.201 27.3562C154.244 28.3081 155.126 29.701 154.987 31.6279C154.824 33.8334 153.687 35.3424 151.505 35.9228C148.301 36.7817 145.306 36.2942 142.59 34.0655C143.356 32.9744 144.076 31.9297 144.679 31.0707C146.003 31.5582 147.233 32.0458 148.463 32.4869C148.649 32.5565 148.928 32.6029 149.09 32.5101C149.485 32.3011 149.856 32.0226 150.228 31.7672C149.926 31.4654 149.671 31.0707 149.299 30.9082C148.347 30.4903 147.349 30.2349 146.397 29.8171C143.936 28.7491 142.938 27.0776 143.24 24.5703C143.426 22.9453 144.401 21.8541 145.817 21.1576C148.417 19.904 152.271 20.5076 154.523 22.5042C153.849 23.6417 153.107 24.7328 152.41 25.7543Z" fill="white"/>
<path d="M120.721 34.0892C121.487 32.9748 122.23 31.9534 123.019 30.839C124.11 31.7676 125.248 32.4409 126.664 32.5337C126.966 32.557 127.291 32.5802 127.546 32.4641C127.848 32.3248 128.266 32.0694 128.289 31.8141C128.335 31.5819 127.987 31.164 127.709 31.0479C126.85 30.6765 125.944 30.3979 125.062 30.0497C123.483 29.4461 122.067 28.5871 121.51 26.8691C120.605 24.0833 122.16 21.4367 125.108 20.7634C127.848 20.1366 130.355 20.7634 132.677 22.4582C131.911 23.5957 131.191 24.6869 130.425 25.8244C129.868 25.4762 129.38 25.1512 128.869 24.8726C128.498 24.6637 128.103 24.4779 127.685 24.4083C127.035 24.3154 126.176 24.0833 125.944 24.919C125.735 25.6619 126.571 25.8477 127.105 26.0566C128.08 26.4745 129.102 26.8227 130.053 27.2406C132.468 28.3085 133.234 29.6086 132.979 32.1159C132.793 33.9731 131.377 35.5518 129.264 36.0161C126.2 36.7126 123.321 36.2482 120.721 34.0892Z" fill="white"/>
<path d="M140.313 35.9929C138.734 35.9929 137.225 35.9929 135.646 35.9929C135.646 30.9784 135.646 25.987 135.646 20.9492C137.179 20.9492 138.711 20.9492 140.313 20.9492C140.313 25.9174 140.313 30.9087 140.313 35.9929Z" fill="white"/>
<path d="M137.991 13.3809C139.756 13.3809 141.033 14.5649 141.033 16.2132C141.009 17.815 139.756 19.0222 138.061 19.0455C136.32 19.0687 135.02 17.8847 135.02 16.2364C134.997 14.5416 136.204 13.3809 137.991 13.3809Z" fill="white"/>
</svg>
