<svg width="157" height="33" viewBox="0 0 157 33" fill="none" xmlns="http://www.w3.org/2000/svg">
<path d="M42.4669 10.9551H44.1727L48.9509 22.0402H46.6945L45.6622 19.5036H40.8545L39.8517 22.0402H37.6445L42.4669 10.9551ZM44.974 17.8126L43.2682 13.3048L41.528 17.8126H44.974Z" fill="white"/>
<path d="M51.0664 10.9551H53.3375L56.3607 19.3316L59.4773 10.9551H61.6059L57.1276 22.0402H55.4218L51.0664 10.9551Z" fill="white"/>
<path d="M68.6593 10.9551H70.3651L75.1384 22.0402H72.882L71.8497 19.5036H67.042L66.0392 22.0402H63.832L68.6593 10.9551ZM71.1615 17.8126L69.4557 13.3048L67.7155 17.8126H71.1615Z" fill="white"/>
<path d="M79.5039 10.9551H81.4751V20.2558H86.1894V22.0402H79.5039V10.9551Z" fill="white"/>
<path d="M94.3429 10.9551H96.0487L100.827 22.0402H98.5705L97.5382 19.5036H92.7256L91.7228 22.0402H89.5156L94.3429 10.9551ZM96.8451 17.8126L95.1393 13.3048L93.3991 17.8126H96.8451Z" fill="white"/>
<path d="M105.188 10.9551H107.803L113.176 19.194H113.205V10.9551H115.176V22.0402H112.669L107.188 13.5359H107.159V22.0402H105.188V10.9551Z" fill="white"/>
<path d="M128.396 13.5555C127.988 13.118 127.595 12.823 127.206 12.6805C126.833 12.533 126.449 12.4593 126.066 12.4593C125.491 12.4593 124.97 12.5625 124.498 12.7739C124.04 12.9705 123.642 13.2556 123.308 13.6194C122.974 13.9733 122.713 14.3912 122.526 14.8729C122.349 15.3547 122.261 15.8708 122.261 16.4214C122.261 17.0162 122.349 17.5668 122.526 18.0633C122.713 18.5647 122.974 18.9973 123.308 19.361C123.642 19.7248 124.04 20.0148 124.498 20.2213C124.97 20.4278 125.491 20.5359 126.066 20.5359C126.513 20.5359 126.946 20.4327 127.364 20.2213C127.791 20.0001 128.189 19.656 128.553 19.189L130.18 20.3491C129.679 21.0373 129.069 21.5387 128.347 21.8534C127.629 22.168 126.857 22.3253 126.046 22.3253C125.191 22.3253 124.404 22.1876 123.682 21.9173C122.974 21.6371 122.354 21.2438 121.833 20.7424C121.322 20.2311 120.919 19.6216 120.629 18.9088C120.339 18.2009 120.191 17.4095 120.191 16.5443C120.191 15.6545 120.339 14.8533 120.629 14.1306C120.919 13.3982 121.322 12.7788 121.833 12.2676C122.354 11.7563 122.969 11.363 123.682 11.0927C124.399 10.8125 125.191 10.6699 126.046 10.6699C126.798 10.6699 127.491 10.8076 128.13 11.0779C128.779 11.3385 129.379 11.7858 129.93 12.4249L128.396 13.5555Z" fill="white"/>
<path d="M134.635 10.9551H136.606V15.3695H141.787V10.9551H143.758V22.0402H141.787V17.1539H136.606V22.0402H134.635V10.9551Z" fill="white"/>
<path d="M149.375 10.9551H156.719V12.7395H151.346V15.4629H156.434V17.2473H151.346V20.2558H156.999V22.0402H149.375V10.9551Z" fill="white"/>
<path fill-rule="evenodd" clip-rule="evenodd" d="M31.8052 16.5003C31.8052 25.2848 24.6871 32.4029 15.9026 32.4029C7.11807 32.4029 0 25.2848 0 16.5003C0 7.71573 7.11807 0.597656 15.9026 0.597656C24.6871 0.597656 31.8052 7.71573 31.8052 16.5003ZM11.3948 22.8269H8.3077C7.65881 22.8269 7.33928 22.8269 7.14265 22.704C6.93127 22.5663 6.80346 22.3402 6.78871 22.0895C6.77888 21.8585 6.93619 21.5783 7.25571 21.013L14.8752 7.583C15.1996 7.01277 15.3619 6.72765 15.5683 6.61951C15.7895 6.50644 16.055 6.50644 16.2811 6.61951C16.4876 6.72274 16.6498 7.00785 16.9742 7.583L18.5424 10.3162L18.5522 10.3309C18.9012 10.9405 19.0782 11.2551 19.1569 11.5795C19.2404 11.9335 19.2404 12.312 19.1569 12.6659C19.0782 12.9953 18.9012 13.305 18.5473 13.9293L14.5458 21.0031L14.536 21.0228C14.1821 21.6422 14.0051 21.9519 13.7593 22.1878C13.4889 22.4435 13.1645 22.6352 12.8106 22.7384C12.4861 22.8269 12.1224 22.8269 11.3948 22.8269ZM19.1864 22.8269H23.6106C24.2644 22.8269 24.5888 22.8269 24.7854 22.6991C24.9968 22.5614 25.1295 22.3304 25.1394 22.0797C25.1492 21.8585 24.9919 21.5881 24.6871 21.0572C24.6773 21.0375 24.6675 21.0228 24.6527 21.0031L22.4357 17.213L22.4111 17.1688C22.1014 16.6428 21.9441 16.3774 21.7426 16.2741C21.5214 16.1611 21.2559 16.1611 21.0347 16.2741C20.8331 16.3774 20.666 16.6576 20.3416 17.218L18.1344 21.008L18.1245 21.0228C17.8001 21.5783 17.6379 21.8585 17.6526 22.0895C17.6674 22.3402 17.7952 22.5713 18.0066 22.7089C18.2081 22.8269 18.5375 22.8269 19.1864 22.8269Z" fill="white"/>
</svg>
