<svg width="156" height="49" viewBox="0 0 156 49" fill="none" xmlns="http://www.w3.org/2000/svg">
<path fill-rule="evenodd" clip-rule="evenodd" d="M0 0.107422L19.3953 48.2782L46.4102 15.7795L36.8569 6.80342L0 0.107422ZM6.86917 3.94608L33.4223 8.76604L23.1185 17.2515L6.86917 3.94608ZM5.022 5.73553L21.964 19.6182L19.3087 41.2359L5.022 5.73553ZM36.2219 9.74735L41.85 15.0291L26.4377 17.7999L36.2219 9.74735ZM24.3884 20.7438L41.4459 17.6844L21.8774 41.2359L24.3884 20.7438Z" fill="white"/>
<path fill-rule="evenodd" clip-rule="evenodd" d="M99.284 23.1405C100.525 21.9572 101.16 20.3409 101.16 18.3494C101.16 11.0473 94.6083 11.0762 94.5218 11.0762H82.9769H80.668V33.9638H82.9481V13.3563H94.4352C94.7815 13.3851 98.8511 13.6738 98.8511 18.3494C98.8511 19.7348 98.4759 20.745 97.6966 21.4954C96.2246 22.9096 93.7425 22.7942 93.7425 22.7942H84.6798V33.9927H86.9599V25.1031H93.6559L99.0242 34.0792H101.68L96.138 24.8145C97.1771 24.497 98.3316 24.0352 99.284 23.1405Z" fill="white"/>
<path fill-rule="evenodd" clip-rule="evenodd" d="M62.2539 33.9349H64.534V18.2051H62.2539V33.9349Z" fill="white"/>
<path fill-rule="evenodd" clip-rule="evenodd" d="M55.0391 13.2981H75.4734V11.0469H55.0391V13.2981Z" fill="white"/>
<path fill-rule="evenodd" clip-rule="evenodd" d="M66.2383 33.9349H68.5184V18.2051H66.2383V33.9349Z" fill="white"/>
<path fill-rule="evenodd" clip-rule="evenodd" d="M139.402 33.8494H141.711V25.5371H139.402V33.8494Z" fill="white"/>
<path fill-rule="evenodd" clip-rule="evenodd" d="M153.689 11.1914V29.5766L135.275 8.7959V33.7905H137.584V15.5785L155.998 36.3592V11.1914H153.689Z" fill="white"/>
<path fill-rule="evenodd" clip-rule="evenodd" d="M118.767 31.712C113.572 31.712 109.358 27.527 109.358 22.4184C109.358 17.3098 113.572 13.1248 118.767 13.1248C123.962 13.1248 128.176 17.3098 128.176 22.4184C128.176 27.527 123.962 31.712 118.767 31.712ZM118.767 10.8447C112.302 10.8447 107.049 16.0399 107.049 22.4184C107.049 28.7969 112.302 33.9921 118.767 33.9921C125.232 33.9921 130.485 28.7969 130.485 22.4184C130.485 16.0399 125.232 10.8447 118.767 10.8447Z" fill="white"/>
<path fill-rule="evenodd" clip-rule="evenodd" d="M118.767 20.5996C117.901 20.5996 117.18 21.2923 117.18 22.1582C117.18 23.024 117.901 23.7167 118.767 23.7167C119.633 23.7167 120.355 23.024 120.355 22.1582C120.355 21.2923 119.633 20.5996 118.767 20.5996Z" fill="white"/>
</svg>
