<svg width="156" height="60" viewBox="0 0 156 60" fill="none" xmlns="http://www.w3.org/2000/svg">
<g clip-path="url(#clip0_662_567)">
<mask id="mask0_662_567" style="mask-type:luminance" maskUnits="userSpaceOnUse" x="0" y="0" width="156" height="60">
<path d="M156 0H0V59.4286H156V0Z" fill="white"/>
</mask>
<g mask="url(#mask0_662_567)">
<path d="M29.8901 59.4286C46.3008 59.4286 59.6043 46.1251 59.6043 29.7143C59.6043 13.3035 46.3008 0 29.8901 0C13.4793 0 0.175781 13.3035 0.175781 29.7143C0.175781 46.1251 13.4793 59.4286 29.8901 59.4286Z" fill="white"/>
<path d="M40.0366 16.585H19.7442C16.0131 16.585 13.6484 20.6097 15.5254 23.8633L28.0491 45.5704C28.8664 46.9878 30.9144 46.9878 31.7317 45.5704L44.258 23.8633C46.1325 20.6149 43.7677 16.585 40.0392 16.585H40.0366ZM28.0389 39.0607L25.3115 33.7821L18.7304 22.0117C18.2963 21.2584 18.8325 20.293 19.7417 20.293H28.0364V39.0633L28.0389 39.0607ZM41.0453 22.0092L34.4668 33.7847L31.7393 39.0607V20.2904H40.0341C40.9432 20.2904 41.4795 21.2558 41.0453 22.0092Z" fill="black"/>
<path d="M78.3355 46.1286H84.9909V22.9183H94.1933V16.5957H69.1328V22.9183H78.3355V46.1286Z" fill="white"/>
<path d="M110.188 46.6279C118.589 46.6279 125.453 39.7646 125.453 31.3623C125.453 22.96 118.589 16.0967 110.188 16.0967C101.744 16.0967 94.9219 22.96 94.9219 31.3623C94.9219 39.7646 101.744 46.6279 110.188 46.6279ZM110.188 40.2221C105.362 40.2221 101.577 36.1458 101.577 31.3623C101.577 26.5788 105.362 22.5024 110.188 22.5024C114.971 22.5024 118.756 26.5788 118.756 31.3623C118.756 36.1458 114.971 40.2221 110.188 40.2221Z" fill="white"/>
<path d="M155.826 46.1286V16.5957H149.17V34.8146L134.82 16.5957H129.121V46.1286H135.735V27.8681L150.127 46.1286H155.826Z" fill="white"/>
</g>
</g>
<defs>
<clipPath id="clip0_662_567">
<rect width="156" height="59.4286" fill="white"/>
</clipPath>
</defs>
</svg>
